{"title":"Love Child S03E03 1080P WEB-DL AAC2 0 H 264","uid":15243957,"size":1653847584,"categoryP":"video","categoryS":"hd___tv_shows","magnet":"?xt=urn:btih:45226417e6492c5511dce6eaeba64f8ac0988381&amp;dn=Love+Child+S03E03+1080P+WEB-DL+AAC2+0+H+264&amp;tr=udp%3A%2F%2Ftracker.leechers-paradise.org%3A6969&amp;tr=udp%3A%2F%2Fzer0day.ch%3A1337&amp;tr=udp%3A%2F%2Fopen.demonii.com%3A1337&amp;tr=udp%3A%2F%2Ftracker.coppersurfer.tk%3A6969&amp;tr=udp%3A%2F%2Fexodus.desync.com%3A6969","seeders":1,"leechers":0,"uploader":"jmanwf","files":1,"time":1467985029,"description":"Description\r\nWhilst being blackmailed by McNaughton’s (Jonathan LaPaglia) estranged wife, Joan (Jessica Marais)\r\n\r\n\r\n\r\nVideo\r\nID : 2\r\nFormat : AVC\r\nFormat/Info : Advanced Video Codec\r\nFormat profile :   \r\nFormat settings, CABAC : Yes\r\nFormat settings, ReFrames : 4 frames\r\nCodec ID : avc1\r\nCodec ID/Info : Advanced Video Coding\r\nDuration : 41mn 43s\r\nBit rate : 5 155 Kbps\r\nWidth : 1 912 pixels\r\nHeight : 1 072 pixels\r\nDisplay aspect ratio : 16:9\r\nFrame rate mode : Variable\r\nFrame rate : 25.000 fps\r\nMinimum frame rate : 25.000 fps\r\nMaximum frame rate : 200.000 fps\r\nColor space : YUV\r\nChroma subsampling : 4:2:0\r\nBit depth : 8 bits\r\nScan type : Progressive\r\nBits/(Pixel*Frame) : 0.101\r\nStream size : 1.50 GiB (98%)\r\nLanguage : English\r\nEncoded date : UTC 2016-07-08 06:42:28\r\nTagged date : UTC 2016-07-08 06:43:40\r\nColor range : Limited\r\nColor primaries : BT.709\r\nTransfer characteristics : BT.709\r\nMatrix coefficients : BT.709\r\n\r\nAudio\r\nID : 1\r\nFormat : AAC\r\nFormat/Info : Advanced Audio Codec\r\nFormat profile : LC\r\nCodec ID : 40\r\nDuration : 41mn 43s\r\nDuration_LastFrame : -2ms\r\nBit rate mode : Variable\r\nBit rate : 126 Kbps\r\nMaximum bit rate : 212 Kbps\r\nChannel(s) : 2 channels\r\nChannel positions : Front: L R\r\nSampling rate : 48.0 KHz\r\nFrame rate : 46.875 fps (1024 spf)\r\nCompression mode : Lossy\r\nStream size : 37.7 MiB (2%)\r\nLanguage : English\r\nDefault : Yes\r\nAlternate group : 1\r\nEncoded date : UTC 2016-07-08 06:39:16\r\nTagged date : UTC 2016-07-08 06:42:27","torrent":{"xt":"urn:btih:45226417e6492c5511dce6eaeba64f8ac0988381","amp;dn":"Love+Child+S03E03+1080P+WEB-DL+AAC2+0+H+264","amp;tr":["udp%3A%2F%2Ftracker.leechers-paradise.org%3A6969","udp%3A%2F%2Fzer0day.ch%3A1337","udp%3A%2F%2Fopen.demonii.com%3A1337","udp%3A%2F%2Ftracker.coppersurfer.tk%3A6969","udp%3A%2F%2Fexodus.desync.com%3A6969"],"infoHash":"45226417e6492c5511dce6eaeba64f8ac0988381","infoHashBuffer":{"type":"Buffer","data":[69,34,100,23,230,73,44,85,17,220,230,234,235,166,79,138,192,152,131,129]},"announce":[],"urlList":[]}}